<svg xmlns:xlink="http://www.w3.org/1999/xlink" xmlns="http://www.w3.org/2000/svg" viewBox="0 0 30 24" width="300" height="240"><g fill="none"><path d="M3.878 11.98l7.372-7.55a5.096 5.096 0 017.292 0l.08.083a5.226 5.226 0 010 7.302l-7.372 7.55a5.096 5.096 0 01-7.292 0l-.08-.083a5.226 5.226 0 010-7.302z" fill="#12D2AC"></path><path d="M18.548 4.43l7.292 7.467a5.344 5.344 0 010 7.467 5.096 5.096 0 01-7.292 0l-7.292-7.467a5.344 5.344 0 010-7.467 5.096 5.096 0 017.292 0z" fill="#307AF2"></path><path d="M18.632 4.522l3.553 3.638-7.292 7.467L7.601 8.16l3.553-3.638a5.226 5.226 0 017.478 0z" fill="#0057FE"></path><g fill="#FFFFFF" fill-opacity="0.9"></g></g></svg>